<?xml version="1.0" encoding="UTF-8" standalone="no"?>
<svg width="16px" height="13px" viewBox="0 0 16 13" version="1.1" xmlns="http://www.w3.org/2000/svg" xmlns:xlink="http://www.w3.org/1999/xlink" xmlns:sketch="http://www.bohemiancoding.com/sketch/ns">
    <!-- Generator: Sketch 3.4.4 (17249) - http://www.bohemiancoding.com/sketch -->
    <title>Shape</title>
    <desc>Created with Sketch.</desc>
    <defs></defs>
    <g id="Page-1" stroke="none" stroke-width="1" fill="none" fill-rule="evenodd" sketch:type="MSPage">
        <g id="twitter" sketch:type="MSLayerGroup" fill="#00ACED">
            <path d="M16,1.54922876 C15.4111111,1.81016993 14.7792418,1.98713725 14.1153464,2.06614379 C14.7932288,1.66020915 15.3121307,1.01633987 15.5580654,0.251477124 C14.9221961,0.627398693 14.2203137,0.900366013 13.4724444,1.04833987 C12.8735686,0.409464052 12.0217255,0.0115294118 11.0768889,0.0115294118 C9.26423529,0.0115294118 7.7945098,1.4812549 7.7945098,3.29291503 C7.7945098,3.54985621 7.82350327,3.80081046 7.87950327,4.04078431 C5.15202614,3.90379085 2.7334902,2.59704575 1.11479739,0.611398693 C0.831843137,1.09532026 0.670875817,1.65918954 0.670875817,2.26109804 C0.670875817,3.39989542 1.25077124,4.40470588 2.13061438,4.99257516 C1.59270588,4.97458824 1.08679739,4.82661438 0.643895425,4.58065359 L0.643895425,4.62164706 C0.643895425,6.21134641 1.77568627,7.5380915 3.27639216,7.84005229 C3.00143791,7.91403922 2.71150327,7.95503268 2.41155556,7.95503268 C2.19960784,7.95503268 1.99464052,7.93403922 1.7936732,7.89403922 C2.2115817,9.19879739 3.42337255,10.1476078 4.85911111,10.1736209 C3.73631373,11.0534641 2.32057516,11.576366 0.782875817,11.576366 C0.517934641,11.576366 0.25696732,11.560366 2.61437908e-05,11.5313725 C1.45275817,12.4642092 3.17743791,13.0081046 5.03108497,13.0081046 C11.0689412,13.0081046 14.3693333,8.00703268 14.3693333,3.66985621 L14.3583268,3.24494118 C15.0031895,2.78499346 15.5610719,2.20711111 16,1.54922876 L16,1.54922876 Z" id="Shape" sketch:type="MSShapeGroup"></path>
        </g>
    </g>
</svg>